# xmcd
#
# Track frame offsets:
#	150
#	13502
#	23720
#	36505
#	51000
#	68967
#	81027
#	94295
#	108240
#	123172
#	138622
#	152065
#	172562
#	182430
#	196005
#	208445
#
# Disc length: 2948
#
# Revision: 4
# Processed by: cddbd v1.5.1PL0 Copyright (c) Steve Scherf et al.
# Submitted via: ExactAudioCopy v0.95a5
# Normalized: r3:DSETVAR1,TDELIM( - )
#
DISCID=ce0b8210
DTITLE=Various Artist - Slurped!
DYEAR=1900
DGENRE=Funk
TTITLE0=Fried Chicken - Funky DJ
TTITLE1=Salt - Hung Up
TTITLE2=Singing Principal - Women's Liberation
TTITLE3=Eddie Bo and Inez Cheatum - Lover and a Friend
TTITLE4=Thunder and Lightning - Bumpin' Bus Stop
TTITLE5=The Nu-People - I'd Be Nowhere Today
TTITLE6=Reuben Bell - Super Jock
TTITLE7=Pleasure Web - Music Man
TTITLE8=Gary Byrd - Soul Travelling
TTITLE9=Mack Rice - Three People
TTITLE10=Marlena Shaw - California Soul
TTITLE11=Odetta - Hit Or Miss
TTITLE12=7-Eleven - Dance the Slurp
TTITLE13=Rufus Thomas - Itch and Scratch
TTITLE14=Lou Courtney - Hey Joyce
TTITLE15=Alvin Cash - Keep On Dancin'
EXTD=ID3G: 0
EXTT0=
EXTT1=
EXTT2=
EXTT3=
EXTT4=
EXTT5=
EXTT6=
EXTT7=
EXTT8=
EXTT9=
EXTT10=
EXTT11=
EXTT12=
EXTT13=
EXTT14=
EXTT15=
PLAYORDER=
